<svg width="50px" height="32px" version="1.1" xmlns="http://www.w3.org/2000/svg"
    viewBox="0 0 100 100"
    preserveAspectRatio="xMidYMid meet" xmlns:xlink="http://www.w3.org/1999/xlink">
    <g transform="translate(0.000000,100.000000) scale(0.100000,-0.100000)" fill="#000000"
        stroke="none">
        <path
            d="M79 908 c21 -46 91 -193 155 -327 l116 -244 0 -169 c0 -161 1 -168
                20 -168 19 0 20 7 20 168 l0 167 155 325 c85 179 150 327 144 328 -5 2 -15 2
                -22 -1 -7 -2 -75 -138 -152 -301 -108 -229 -142 -292 -151 -281 -6 7 -71 142
                -145 299 -115 246 -137 285 -156 286 -21 0 -21 -3 16 -82z" />
        <path
            d="M130 987 c0 -9 242 -512 250 -521 5 -5 11 1 15 16 9 36 -215 502
                -244 506 -12 2 -21 1 -21 -1z" />
        <path
            d="M318 770 c95 -197 107 -218 118 -199 10 19 -2 48 -85 220 -81 170
                -99 199 -117 199 -21 0 -14 -18 84 -220z" />
        <path
            d="M592 669 l-152 -321 0 -175 c0 -161 1 -174 18 -171 15 3 17 21 20
                172 l2 169 154 324 c139 291 152 323 132 323 -19 0 -43 -44 -174 -321z" />
        <path
            d="M796 918 c-19 -40 -88 -188 -155 -328 l-121 -255 2 -165 c3 -148 5
                -165 21 -168 16 -3 17 10 17 162 l0 166 155 326 c85 180 155 328 155 330 0 2
                -9 4 -21 4 -15 0 -28 -17 -53 -72z" />
        <path
            d="M763 667 l-153 -323 0 -173 c0 -159 1 -172 18 -169 15 3 18 22 22
                178 l5 175 148 310 c82 171 151 313 154 318 2 4 -6 7 -19 7 -20 0 -41 -37
                -175 -323z" />
    </g>
</svg>